<?xml version="1.0" encoding="UTF-8" standalone="no"?>
<svg
   width="80"
   height="69.999985"
   viewBox="0 0 80 69.999985"
   fill="none"
   version="1.1"
   id="svg7"
   xmlns="http://www.w3.org/2000/svg"
   xmlns:svg="http://www.w3.org/2000/svg">
  <defs
     id="defs7" />
  <path
     d="m 10.1422,2.3428844 17.8759,6.6991 c 3.5217,-1.0399 7.4955,-1.5966 11.9819,-1.5137 4.4861,-0.0829 8.4601,0.4738 11.9816,1.5137 l 17.8758,-6.6991 c 3.6597,-0.629 6.864,2.3265 6.1819,5.7024 L 73.5095,24.656284 c 3.0772,7.0138 4.1094,14.0912 4.1094,18.3728 0,10.9993 -5.0212,24.7134 -37.6189,24.7134 -32.598,0 -37.6192,-13.7141 -37.6192,-24.7134 0,-4.2816 1.0322,-11.359 4.1093,-18.3728 L 3.9604,8.0452844 c -0.6819,-3.3759 2.5222,-6.3314 6.1818,-5.7024 z"
     fill="#f9a535"
     id="path1" />
  <path
     fill-rule="evenodd"
     clip-rule="evenodd"
     d="m 10.7985,0.1601844 -0.2316,-0.0398 c -5.1811,-0.8904 -9.9261,3.2867 -8.9558,8.2937 L 4.0412,24.370284 C 1.0279,31.488184 0,38.594584 0,43.028484 c 0,5.7996 1.3249,12.71 7.3262,18.1184 5.9601,5.3713 16.0847,8.8531 32.6739,8.8531 16.5891,0 26.7136,-3.4819 32.6737,-8.8531 6.0013,-5.4084 7.3262,-12.3188 7.3262,-18.1184 0,-4.4339 -1.0279,-11.5403 -4.0412,-18.6582 L 78.3889,8.4142844 c 0.9707,-5.0073 -3.775,-9.1843 -8.9558,-8.2939 l -0.2316,0.0398 -17.3289,6.4942 c -3.5584,-0.9624 -7.5037,-1.4619 -11.8725,-1.3852 -4.369,-0.0767 -8.3141,0.4228 -11.8726,1.3852 z m 17.2197,8.8813 c 3.5218,-1.04 7.4955,-1.5967 11.9819,-1.5138 4.4862,-0.0829 8.4602,0.4738 11.9817,1.5138 l 17.8758,-6.6992 c 3.6596,-0.629 6.864,2.3266 6.1819,5.7025 L 73.5097,24.655684 c 3.0771,7.0138 4.1093,14.0912 4.1093,18.3728 0,10.9994 -5.0211,24.7134 -37.6189,24.7134 -32.598,0 -37.6191,-13.714 -37.6191,-24.7134 0,-4.2816 1.0321,-11.359 4.1093,-18.3728 L 3.9605,8.0447844 c -0.6818,-3.3759 2.5222,-6.3315 6.1819,-5.7025 z"
     fill="#844e1d"
     id="path2" />
  <path
     d="m 39.9999,65.259884 c 15.7796,0 28.5714,-4.164 28.5714,-14.0163 0,-9.8523 -11.138,-21.6616 -28.5714,-21.6616 -17.4334,0 -28.5714,11.8093 -28.5714,21.6616 0,9.8523 12.7918,14.0163 28.5714,14.0163 z"
     fill="#fefefe"
     id="path3" />
  <path
     d="m 44.5237,25.968384 v 7.2259 c 0,1.9954 1.7056,3.613 3.8095,3.613 2.104,0 3.8095,-1.6176 3.8095,-3.613 v -7.2259 c 0,-1.9954 -1.7055,-3.6129 -3.8095,-3.6129 -2.1039,0 -3.8095,1.6175 -3.8095,3.6129 z"
     fill="#844e1d"
     id="path4" />
  <path
     d="m 27.8569,25.968384 v 7.2259 c 0,1.9954 1.7056,3.613 3.8096,3.613 2.1039,0 3.8095,-1.6176 3.8095,-3.613 v -7.2259 c 0,-1.9954 -1.7056,-3.6129 -3.8095,-3.6129 -2.104,0 -3.8096,1.6175 -3.8096,3.6129 z"
     fill="#844e1d"
     id="path5" />
  <path
     fill-rule="evenodd"
     clip-rule="evenodd"
     d="m 41.0711,40.050184 c 1.1817,-0.3205 2.0242,-1.1452 2.0242,-2.0269 0,-1.1307 -1.3858,-1.4452 -3.0952,-1.4452 -1.7095,0 -3.0952,0.3145 -3.0952,1.4452 0,0.8816 0.8424,1.7063 2.0238,2.0268 v 1.7209 c 0,1.6213 -1.3855,2.9356 -3.0946,2.9356 -0.9325,0 -1.7686,-0.3912 -2.336,-1.01 -0.3377,-0.3684 -0.968,-0.4974 -1.3293,-0.1504 l -0.1667,0.1602 c -0.384,0.3688 -0.4648,0.9522 -0.1039,1.3419 0.9598,1.0364 2.3673,1.6906 3.9359,1.6906 1.699,0 3.209,-0.7675 4.1658,-1.9569 0.9568,1.1894 2.4669,1.9569 4.1659,1.9569 1.5685,0 2.976,-0.6542 3.9358,-1.6905 0.3609,-0.3897 0.2801,-0.9732 -0.1039,-1.342 l -0.1666,-0.1601 c -0.3614,-0.3471 -0.9917,-0.2181 -1.3294,0.1503 -0.5674,0.6188 -1.4035,1.01 -2.3359,1.01 -1.7092,0 -3.0947,-1.3143 -3.0947,-2.9356 z"
     fill="#844e1d"
     id="path6" />
  <circle
     cx="-40"
     cy="37.999985"
     r="4"
     transform="scale(-1,1)"
     fill="#ff3a3a"
     id="circle6" />
  <circle
     cx="-39"
     cy="36.999985"
     r="2"
     transform="scale(-1,1)"
     fill="#ff7070"
     id="circle7" />
</svg>
