<?xml version="1.0" encoding="UTF-8" standalone="no"?>
<svg
   width="80"
   height="69.999985"
   viewBox="0 0 80 69.999985"
   fill="none"
   version="1.1"
   id="svg6"
   xmlns="http://www.w3.org/2000/svg"
   xmlns:svg="http://www.w3.org/2000/svg">
  <defs
     id="defs6" />
  <path
     d="m 69.8578,2.3428844 -17.8759,6.6991 c -3.5217,-1.0399 -7.4955,-1.5966 -11.9819,-1.5137 -4.4861,-0.0829 -8.4601,0.4738 -11.9816,1.5137 l -17.8758,-6.6991 c -3.6597,-0.629 -6.864,2.3265 -6.1819,5.7024 L 6.4905,24.656284 c -3.0772,7.0138 -4.1094,14.0912 -4.1094,18.3728 0,10.9993 5.0212,24.7134 37.6189,24.7134 32.598,0 37.6192,-13.7141 37.6192,-24.7134 0,-4.2816 -1.0322,-11.359 -4.1093,-18.3728 L 76.0396,8.0452844 c 0.6819,-3.3759 -2.5222,-6.3314 -6.1818,-5.7024 z"
     fill="#359df9"
     id="path1" />
  <path
     fill-rule="evenodd"
     clip-rule="evenodd"
     d="m 69.2015,0.1601844 0.2316,-0.0398 c 5.1811,-0.8904 9.9261,3.2867 8.9558,8.2937 L 75.9588,24.370284 c 3.0133,7.1179 4.0412,14.2243 4.0412,18.6582 0,5.7996 -1.3249,12.71 -7.3262,18.1184 -5.9601,5.3713 -16.0847,8.8531 -32.6739,8.8531 -16.5891,0 -26.7136,-3.4819 -32.6737,-8.8531 C 1.3249,55.738484 0,48.828084 0,43.028484 c 0,-4.4339 1.0279,-11.5403 4.0412,-18.6582 L 1.6111,8.4142844 c -0.9707,-5.0073 3.775,-9.1843 8.9558,-8.2939 l 0.2316,0.0398 17.3289,6.4942 c 3.5584,-0.9624 7.5037,-1.4619 11.8725,-1.3852 4.369,-0.0767 8.3141,0.4228 11.8726,1.3852 z m -17.2197,8.8813 c -3.5218,-1.04 -7.4955,-1.5967 -11.9819,-1.5138 -4.4862,-0.0829 -8.4602,0.4738 -11.9817,1.5138 l -17.8758,-6.6992 c -3.6596,-0.629 -6.864,2.3266 -6.1819,5.7025 L 6.4903,24.655684 c -3.0771,7.0138 -4.1093,14.0912 -4.1093,18.3728 0,10.9994 5.0211,24.7134 37.6189,24.7134 32.598,0 37.6191,-13.714 37.6191,-24.7134 0,-4.2816 -1.0321,-11.359 -4.1093,-18.3728 L 76.0395,8.0447844 c 0.6818,-3.3759 -2.5222,-6.3315 -6.1819,-5.7025 z"
     fill="#1d5e84"
     id="path2" />
  <path
     d="m 40.0001,65.259884 c -15.7796,0 -28.5714,-4.164 -28.5714,-14.0163 0,-9.8523 11.138,-21.6616 28.5714,-21.6616 17.4334,0 28.5714,11.8093 28.5714,21.6616 0,9.8523 -12.7918,14.0163 -28.5714,14.0163 z"
     fill="#fefefe"
     id="path3" />
  <path
     d="m 35.4763,25.968384 v 7.2259 c 0,1.9954 -1.7056,3.613 -3.8095,3.613 -2.104,0 -3.8095,-1.6176 -3.8095,-3.613 v -7.2259 c 0,-1.9954 1.7055,-3.6129 3.8095,-3.6129 2.1039,0 3.8095,1.6175 3.8095,3.6129 z"
     fill="#1d5e84"
     id="path4" />
  <path
     d="m 52.1431,25.968384 v 7.2259 c 0,1.9954 -1.7056,3.613 -3.8096,3.613 -2.1039,0 -3.8095,-1.6176 -3.8095,-3.613 v -7.2259 c 0,-1.9954 1.7056,-3.6129 3.8095,-3.6129 2.104,0 3.8096,1.6175 3.8096,3.6129 z"
     fill="#1d5e84"
     id="path5" />
  <path
     fill-rule="evenodd"
     clip-rule="evenodd"
     d="m 38.9291,40.050184 c -1.1816,-0.3205 -2.0242,-1.1452 -2.0242,-2.0269 0,-1.1307 1.3858,-1.4452 3.0952,-1.4452 1.7095,0 3.0953,0.3145 3.0953,1.4452 0,0.8816 -0.8424,1.7063 -2.0239,2.0268 v 1.7209 c 0,1.6213 1.3856,2.9356 3.0947,2.9356 0.9324,0 1.7685,-0.3912 2.3359,-1.01 0.3377,-0.3684 0.9681,-0.4974 1.3294,-0.1504 l 0.1667,0.1601 c 0.3839,0.3689 0.4647,0.9523 0.1038,1.342 -0.9598,1.0364 -2.3673,1.6906 -3.9358,1.6906 -1.699,0 -3.2091,-0.7675 -4.1659,-1.9569 -0.9568,1.1894 -2.4668,1.9569 -4.1658,1.9569 -1.5686,0 -2.976,-0.6542 -3.9358,-1.6905 -0.361,-0.3897 -0.2802,-0.9732 0.1038,-1.342 l 0.1667,-0.1601 c 0.3613,-0.3471 0.9916,-0.2181 1.3294,0.1503 0.5673,0.6188 1.4034,1.01 2.3359,1.01 1.7091,0 3.0946,-1.3143 3.0946,-2.9356 z"
     fill="#1d5e84"
     id="path6" />
</svg>
